<?xml version="1.0" encoding="utf-8"?>
<!-- Generator: Adobe Illustrator 19.1.0, SVG Export Plug-In . SVG Version: 6.00 Build 0)  -->
<svg version="1.1" id="Layer_1" xmlns="http://www.w3.org/2000/svg" xmlns:xlink="http://www.w3.org/1999/xlink" x="0px" y="0px"
	 viewBox="0 0 518.8 119.9" style="enable-background:new 0 0 518.8 119.9;" xml:space="preserve">
<g>
	<g id="Page-1_6_">
		<g id="Features-Landing_6_" transform="translate(-87.000000, -44.000000)">
			<g id="Header-Block-2_6_" transform="translate(-2.000000, 0.407080)">

					<g id="_x31__x5F_Braintree_x5F_Logo_x5F_Master_x5F_File_6_" transform="translate(89.000000, 44.000000)">
					<path id="Fill-1_6_" d="M16.9,58.5h12.1c9.4,0,14.1-3.1,14.1-9c0-5.8-5-9-14.8-9H16.9V58.5L16.9,58.5z M16.9,15.1v16.7h10.7
						c8,0,12.1-3,12.1-8.4c0-5.5-4.3-8.4-12.3-8.4L16.9,15.1L16.9,15.1z M0,67.5v-9h7.1V15.1H0v-9h28.6c13.1,0,21.1,6,21.1,16.5
						c0,6.9-4,11.1-9.2,13.1c7.3,2,12.6,7.2,12.6,14.3c0,11.2-8.7,17.5-23,17.5L0,67.5L0,67.5z"/>
					<path id="Fill-2_6_" d="M104.8,35.5c-1.1-3.6-3.7-5.7-7.2-5.7c-8.2,0-16,6-16,17.1v11.7h15.8v9H62.2v-9h10V31.4h-7.9v-9h17.2
						V30c2.9-5.3,8.7-9.1,16.5-9.1c8.7,0,14.2,5,15.8,12.1L104.8,35.5"/>
					<path id="Fill-3_6_" d="M152.8,49.3c-3-1.1-7.5-1.9-11.6-1.9c-6,0-11.7,1.9-11.7,7.3c0,4,3.6,5.9,8.6,5.9
						c6.9,0,14.7-3.7,14.7-10.1L152.8,49.3L152.8,49.3z M152.8,41.2v-2.5c0-6.4-5.1-9-10.7-9c-5.2,0-9.7,2.1-13.3,5.4l-6.2-6.7
						c4.3-3.9,10.3-7.5,19.5-7.5c11.4,0,20.2,6,20.2,17.5v20.1h6.6v9h-16.2v-4.8c-2.4,3.9-9.1,6.3-15.6,6.3
						c-9.4,0-17.5-4.8-17.5-14.2c0-11.1,11-15.4,21-15.4C145.6,39.4,149.7,40.4,152.8,41.2L152.8,41.2z"/>
					<path id="Fill-4_6_" d="M197.8-0.4h10.5v13.8h-10.5V-0.4z M225.9,58.5v9h-45.8v-9h19V31.4h-14.5v-9h23.9v36.1L225.9,58.5
						L225.9,58.5z"/>
					<path id="Fill-5_6_" d="M237.2,58.5h6.9V31.4h-6.5v-9h15.8v5.8c2.8-4.4,8.5-7.3,15.6-7.3c10.1,0,17.4,6.4,17.4,16.6v21h6.9v9
						h-23.5v-9h7.2V40.1c0-7.8-4.8-10.1-9.2-10.1c-7.1,0-14.3,5.3-14.3,13.5v15h7.2v9h-23.5V58.5"/>
					<path id="Fill-6_6_" d="M306.1,31.4h-11.8v-9h11.8V6.1h9.4v16.3h22.1v9h-22.1v19c0,7,4.9,9.9,10.5,9.9c5.3,0,9.8-3,13.1-6.3
						l6.3,6.5c-4.2,4.5-10.5,8.6-19.4,8.6c-11.4,0-19.9-6.3-19.9-18.3L306.1,31.4"/>
					<path id="Fill-7_6_" d="M396.5,35.5c-1.1-3.6-3.7-5.7-7.2-5.7c-8.2,0-16,6-16,17.1v11.7h15.8v9h-35.2v-9h10V31.4h-7.9v-9h17.2
						V30c2.9-5.3,8.7-9.1,16.5-9.1c8.7,0,14.2,5,15.8,12.1L396.5,35.5"/>
					<path id="Fill-8_6_" d="M421.8,40.3h27.9c-1.4-6.5-7.1-10.8-13.5-10.8C428.9,29.5,423.4,33.9,421.8,40.3L421.8,40.3z
						 M459.6,60.6c-4.7,4.9-13,8.4-22.3,8.4c-15.2,0-25.9-10.2-25.9-24c0-13.9,10.3-24,24.7-24c14.3,0,24.3,10.9,24.3,25.7v1.6
						h-39.1c1.6,7.5,7.9,12.1,16.1,12.1c6.8,0,12.7-2.8,15.9-6.2L459.6,60.6L459.6,60.6z"/>
					<path id="Fill-9_6_" d="M480.1,40.3H508c-1.4-6.5-7.1-10.8-13.5-10.8C487.2,29.5,481.7,33.9,480.1,40.3L480.1,40.3z
						 M517.9,60.6c-4.7,4.9-13,8.4-22.3,8.4c-15.2,0-25.9-10.2-25.9-24c0-13.9,10.3-24,24.7-24c14.3,0,24.3,10.9,24.3,25.7v1.6
						h-39.1c1.6,7.5,7.9,12.1,16.1,12.1c6.8,0,12.7-2.8,15.9-6.2L517.9,60.6L517.9,60.6z"/>
				</g>
			</g>
		</g>
	</g>
	<g>
		<g>
			<path d="M254.5,108l-2.4,4.6h-3l10.8-20.2h2.7l4.4,20.2h-2.8l-1-4.6H254.5z M260.7,96.1l-5,9.5h6.9L260.7,96.1z"/>
			<path d="M439,110.9c1.1,0,1.9-0.2,2.6-0.6c0.7-0.4,1.2-0.9,1.5-1.5c0.3-0.6,0.5-1.3,0.5-1.9c0-0.6-0.2-1.1-0.5-1.5
				c-0.3-0.4-0.9-0.8-1.7-1.2L439,103c-1.4-0.6-2.5-1.3-3.1-2.1c-0.6-0.8-0.9-1.7-0.9-2.8c0-1.2,0.3-2.2,0.9-3.1
				c0.6-0.9,1.4-1.6,2.5-2.1c1.1-0.5,2.3-0.7,3.7-0.7c1.2,0,2.2,0.2,3.1,0.5c0.9,0.3,1.6,0.8,2.3,1.4l-0.4,2.7
				c-1.5-1.4-3.2-2.1-5.2-2.1c-1.2,0-2.2,0.3-3,0.9c-0.8,0.6-1.2,1.4-1.2,2.3c0,0.5,0.2,1,0.6,1.3c0.4,0.4,1.1,0.8,2.1,1.3l2.5,1.1
				c1.3,0.7,2.3,1.4,2.8,2.1c0.6,0.8,0.8,1.7,0.8,2.8c0,1.2-0.3,2.4-0.8,3.4c-0.5,1-1.4,1.9-2.5,2.5c-1.2,0.7-2.7,1-4.5,1
				c-2.5,0-4.5-0.6-5.9-1.9l0.5-2.9C435,110.1,436.9,110.9,439,110.9"/>
			<path d="M460.8,99.6c1,1.1,1.4,2.4,1.4,4.1c0,0.6,0,1-0.1,1.4c-0.1,0.4-0.2,0.8-0.3,1.3h-11c-0.1,1.5,0.3,2.6,1.1,3.4
				c0.8,0.8,1.9,1.2,3.3,1.2c1,0,1.9-0.1,2.7-0.4c0.8-0.2,1.6-0.6,2.4-1.1l-0.4,2.2c-1.5,1-3.3,1.5-5.3,1.5c-1.3,0-2.5-0.3-3.5-0.9
				c-1-0.6-1.7-1.4-2.2-2.4c-0.5-1-0.8-2.2-0.8-3.4c0-1.2,0.3-2.5,0.9-3.9c0.6-1.3,1.6-2.5,2.8-3.4c1.3-0.9,2.8-1.4,4.7-1.4
				C458.4,98,459.8,98.6,460.8,99.6 M453.1,101.4c-0.9,0.8-1.6,1.8-1.9,2.9h8.5c0-0.2,0-0.4,0-0.6c0-1.1-0.3-1.9-0.9-2.6
				c-0.6-0.6-1.4-0.9-2.5-0.9C455.1,100.2,454,100.6,453.1,101.4"/>
			<path d="M471.2,100.7c-1.1,0-2.1,0.4-2.9,1.2c-0.8,0.8-1.3,2-1.6,3.6l-1.1,7.2H463l2.2-14.3h2.5l-0.4,2.4
				c1.2-1.7,2.6-2.5,4.2-2.5c0.4,0,0.8,0,1.1,0.1l-0.4,2.3C472,100.7,471.6,100.7,471.2,100.7"/>
			<polygon points="479,112.8 476.6,112.8 473.2,98.5 475.8,98.5 478.3,109.6 484.2,98.5 486.9,98.5 			"/>
			<path d="M488.5,112.8h-2.6l2.2-14.3h2.6L488.5,112.8z M488.8,95.8c-0.3-0.3-0.4-0.6-0.4-1c0-0.5,0.2-0.9,0.6-1.3
				c0.4-0.4,0.8-0.6,1.3-0.6c0.4,0,0.7,0.1,1,0.4c0.3,0.3,0.4,0.6,0.4,1c0,0.5-0.2,0.9-0.6,1.3c-0.4,0.4-0.8,0.6-1.3,0.6
				C489.4,96.2,489.1,96,488.8,95.8"/>
			<path d="M494.6,112.4c-1-0.6-1.7-1.4-2.2-2.4c-0.5-1-0.8-2.1-0.8-3.3c0-1.5,0.3-2.9,1-4.3c0.7-1.3,1.7-2.4,3-3.2
				c1.3-0.8,2.9-1.2,4.6-1.2c1.7,0,3.1,0.4,4.2,1.3l-0.4,2.7c-1-1.1-2.3-1.6-3.9-1.6c-1.1,0-2.1,0.3-3,0.9c-0.9,0.6-1.6,1.3-2.1,2.3
				c-0.5,0.9-0.7,1.9-0.7,3c0,1.3,0.4,2.4,1.1,3.2c0.7,0.8,1.8,1.2,3,1.2c0.8,0,1.6-0.1,2.4-0.4c0.8-0.3,1.5-0.7,2.1-1.3l-0.4,2.7
				c-0.8,0.5-1.5,0.9-2.3,1.1c-0.8,0.2-1.6,0.3-2.4,0.3C496.6,113.3,495.5,113,494.6,112.4"/>
			<path d="M517.3,99.6c1,1.1,1.4,2.4,1.4,4.1c0,0.6,0,1-0.1,1.4c-0.1,0.4-0.2,0.8-0.3,1.3h-11c-0.1,1.5,0.3,2.6,1.1,3.4
				c0.8,0.8,1.9,1.2,3.3,1.2c1,0,1.9-0.1,2.7-0.4c0.8-0.2,1.6-0.6,2.4-1.1l-0.4,2.2c-1.5,1-3.3,1.5-5.3,1.5c-1.3,0-2.5-0.3-3.5-0.9
				c-1-0.6-1.7-1.4-2.2-2.4c-0.5-1-0.8-2.2-0.8-3.4c0-1.2,0.3-2.5,0.9-3.9c0.6-1.3,1.6-2.5,2.8-3.4c1.3-0.9,2.8-1.4,4.7-1.4
				C515,98,516.3,98.6,517.3,99.6 M509.6,101.4c-0.9,0.8-1.6,1.8-1.9,2.9h8.5c0-0.2,0-0.4,0-0.6c0-1.1-0.3-1.9-0.9-2.6
				c-0.6-0.6-1.4-0.9-2.5-0.9C511.6,100.2,510.5,100.6,509.6,101.4"/>
			<path d="M376.1,82H365c-0.8,0-1.4,0.6-1.5,1.3l-4.5,28.4c-0.1,0.6,0.3,1.1,0.9,1.1h5.7c0.5,0,1-0.4,1.1-0.9l1.3-8
				c0.1-0.7,0.8-1.3,1.5-1.3h3.5c7.3,0,11.5-3.5,12.6-10.5c0.5-3.1,0-5.5-1.4-7.1C382.6,83,379.8,82,376.1,82 M377.4,92.4
				c-0.6,4-3.6,4-6.6,4h-1.7l1.2-7.4c0.1-0.4,0.5-0.8,0.9-0.8h0.8c2,0,3.9,0,4.9,1.1C377.4,90,377.6,91,377.4,92.4"/>
			<path d="M297.2,82h-11.1c-0.8,0-1.4,0.6-1.5,1.3l-4.5,28.4c-0.1,0.6,0.3,1.1,0.9,1.1h5.3c0.8,0,1.4-0.5,1.5-1.3l1.2-7.6
				c0.1-0.7,0.8-1.3,1.5-1.3h3.5c7.3,0,11.5-3.5,12.6-10.5c0.5-3.1,0-5.5-1.4-7.1C303.7,83,300.9,82,297.2,82 M298.5,92.4
				c-0.6,4-3.6,4-6.6,4h-1.7l1.2-7.4c0.1-0.4,0.5-0.8,0.9-0.8h0.8c2,0,3.9,0,4.9,1.1C298.6,90,298.7,91,298.5,92.4"/>
			<path d="M330.3,92.3H325c-0.5,0-0.8,0.3-0.9,0.8l-0.2,1.5l-0.4-0.5c-1.1-1.7-3.7-2.2-6.3-2.2c-5.8,0-10.8,4.4-11.8,10.6
				c-0.5,3.1,0.2,6.1,2,8.1c1.6,1.9,3.9,2.7,6.7,2.7c4.7,0,7.3-3,7.3-3l-0.2,1.5c-0.1,0.6,0.3,1.1,0.9,1.1h4.8
				c0.8,0,1.4-0.5,1.5-1.3l2.9-18.1C331.3,92.8,330.8,92.3,330.3,92.3 M322.9,102.6c-0.5,3-2.9,5.1-6,5.1c-1.5,0-2.8-0.5-3.6-1.4
				c-0.8-0.9-1.1-2.2-0.8-3.7c0.5-3,2.9-5.1,5.9-5.1c1.5,0,2.7,0.5,3.5,1.4C322.8,99.8,323.1,101.1,322.9,102.6"/>
			<path d="M409.1,92.3h-5.3c-0.5,0-0.8,0.3-0.9,0.8l-0.2,1.5l-0.4-0.5c-1.1-1.7-3.7-2.2-6.3-2.2c-5.8,0-10.8,4.4-11.8,10.6
				c-0.5,3.1,0.2,6.1,2,8.1c1.6,1.9,3.9,2.7,6.7,2.7c4.7,0,7.3-3,7.3-3l-0.2,1.5c-0.1,0.6,0.3,1.1,0.9,1.1h4.8
				c0.8,0,1.4-0.5,1.5-1.3l2.9-18.1C410.1,92.8,409.7,92.3,409.1,92.3 M401.8,102.6c-0.5,3-2.9,5.1-6,5.1c-1.5,0-2.8-0.5-3.6-1.4
				c-0.8-0.9-1.1-2.2-0.8-3.7c0.5-3,2.9-5.1,5.9-5.1c1.5,0,2.7,0.5,3.5,1.4C401.7,99.8,402,101.1,401.8,102.6"/>
			<path d="M358.5,92.3h-5.3c-0.5,0-1,0.3-1.3,0.7l-7.3,10.8l-3.1-10.4c-0.2-0.7-0.8-1.1-1.5-1.1h-5.2c-0.6,0-1.1,0.6-0.9,1.2
				l5.9,17.2l-5.5,7.8c-0.4,0.6,0,1.5,0.8,1.5h5.3c0.5,0,1-0.2,1.3-0.7l17.7-25.5C359.7,93.1,359.2,92.3,358.5,92.3"/>
			<path d="M415.4,82.8l-4.5,28.9c-0.1,0.6,0.3,1.1,0.9,1.1h4.6c0.8,0,1.4-0.5,1.5-1.3l4.5-28.4c0.1-0.6-0.3-1.1-0.9-1.1h-5.1
				C415.8,82,415.5,82.4,415.4,82.8"/>
		</g>
	</g>
</g>
</svg>
