<svg id="Logofiles" xmlns="http://www.w3.org/2000/svg" viewBox="0 0 1241.72 215.07"><title>1</title><path d="M293.83,163.88v-112h22v112h-22Z"/><path d="M420.83,163.88V98.27l-21.29,42.61H384.79l-22-42.61v65.61h-21v-112H363l29.2,60.44,29-60.44h21.63v112h-22Z"/><path d="M512.1,120.88H490.83v43h-22v-112H512.1c23.08,0,36.89,15.5,36.89,34.5S535.17,120.88,512.1,120.88Zm-1.1-50H490.83v31H511c9.89,0,16.17-6.32,16.17-15.42S520.89,70.88,511,70.88Z"/><path d="M626.69,163.88l-21.82-45h-16v45h-21v-112h43.31c22.76,0,36.26,15.42,36.26,34.11,0,15.7-9.58,25.6-20.41,29.53l25,48.37H626.69Zm-17-93h-20.9v30h20.9c9.58,0,15.86-6.36,15.86-15S619.31,70.88,609.73,70.88Z"/><path d="M737.67,152.12c-7.85,7.85-17.43,12.24-30.14,12.24s-22.45-4.39-30.3-12.24c-11.3-11.3-11-25.28-11-44.59s-0.31-33.28,11-44.58c7.85-7.85,17.58-12.25,30.3-12.25S729.82,55.1,737.67,63c11.3,11.3,11.15,25.27,11.15,44.58S749,140.82,737.67,152.12Zm-16.17-76a18.14,18.14,0,0,0-14-6,18.49,18.49,0,0,0-14.13,6c-4.24,4.71-5.34,9.89-5.34,31.4s1.1,26.69,5.34,31.4a18.5,18.5,0,0,0,14.13,6,18.15,18.15,0,0,0,14-6c4.24-4.71,5.49-9.89,5.49-31.4S725.74,80.85,721.5,76.14Z"/><path d="M817.88,163.88h-47v-112H816c21.82,0,34.54,12.13,34.54,31.28a25.75,25.75,0,0,1-13.82,23c6.75,3.14,15.39,10.4,15.39,25.32C852.11,152.38,837.82,163.88,817.88,163.88Zm-3.61-93H792.83v26h21.44c9.26,0,14.44-5.31,14.44-13S823.54,70.88,814.28,70.88Zm1.41,46H792.83v27h22.85c9.89,0,14.6-6,14.6-13.58S825.58,116.88,815.69,116.88Z"/><path d="M938,163.88l-6.59-20H891.66l-6.75,20H862.15l40.66-112h17.11l40.82,112H938ZM911.91,84.22l-14.13,40.66h27.79Z"/><path d="M1021.32,163.88H974.83v-112h44.61c21.82,0,34.54,12.13,34.54,31.28a25.75,25.75,0,0,1-13.82,23c6.75,3.14,15.39,10.4,15.39,25.32C1055.55,152.38,1041.26,163.88,1021.32,163.88Zm-3.61-93H996.83v26h20.88c9.26,0,14.44-5.31,14.44-13S1027,70.88,1017.72,70.88Zm1.41,46H996.83v27h22.29c9.89,0,14.6-6,14.6-13.58S1029,116.88,1019.13,116.88Z"/><path d="M1077.83,163.88v-112h22v92h51v20h-73Z"/><path d="M1167.83,163.88v-112h74v19h-52v26h44v20h-44v27h52v20h-74Z"/><path d="M-0.17-.12v215h215v-215h-215Zm194,194h-172v-172h172v172Z"/><rect x="96.83" y="66.88" width="21" height="82"/><path d="M171,58.38A14.33,14.33,0,1,0,156.62,44,14.35,14.35,0,0,0,171,58.38Zm0-21.5A7.17,7.17,0,1,1,163.79,44,7.18,7.18,0,0,1,171,36.88Z"/></svg>