<?xml version="1.0" encoding="utf-8"?>
<!-- Generator: Adobe Illustrator 23.0.1, SVG Export Plug-In . SVG Version: 6.00 Build 0)  -->
<svg version="1.1" id="Layer_1" xmlns="http://www.w3.org/2000/svg" xmlns:xlink="http://www.w3.org/1999/xlink" x="0px" y="0px"
	 viewBox="0 0 753 264" style="enable-background:new 0 0 753 264;" xml:space="preserve">
<style type="text/css">
	.st0{fill:#E50000;}
</style>
<g>
	<g>
		<g>
			<g>
				<path class="st0" d="M690,187.4c-8.1,23.1-30.5,38.2-67.2,38.2c-30.5,0-60-17.8-52.7-58.4c6.1-34.2,37.5-57.1,73.5-57.1
					c40.3,0,57.9,27.7,51.4,59.9l-1.6,7.4h-75.7c-0.2,0.8-1.2,4.4-1.2,8.2c0,9.7,5.1,13.1,11.7,13.1c6.8,0,12.6-3.8,15.8-11.3H690z
					 M651,154.4l0.5-2.5c1.6-8.4-2.4-14.8-11.3-14.8c-8.1,0-15.1,5.8-17.5,17.3H651"/>
				<path class="st0" d="M563.1,112c-11.6,0-20.9,6.7-27.2,15.3h-1l1.6-14h-48.7l-3,14.2l26.9-2.8l-0.6,2.7l-27.3,4.4l-19.2,90.5
					h52.5c0,0,5.4-26,8.7-41.2c5.3-24.3,18.6-29.8,27.5-29.8c7.5,0,12.2,3.4,13.3,4.3l8.6-40.5C574.6,114.7,570.1,112,563.1,112"/>
				<path class="st0" d="M85.1,158.6C63.9,151.9,48,139.5,48,115.9c0-34.5,34.5-54.3,80.6-54.4c39.1-0.1,64.9,16.1,60.4,48.6
					l-55.6,0c2-8.9-3.1-13.9-12.7-13.9c-7.4,0-13.1,3.8-14,8.3c-1.3,6.4,2.8,10.5,12.8,13.2c8.4,2.3,14.1,3.8,22.4,6.2
					c23.5,6.7,34.8,20.8,37.7,35.5l-69.9,7.2L85.1,158.6z M87.1,196.1l4.6-22.2H32c-4.1,37.5,25.3,52.6,63.1,52.6
					c36.3,0,74.6-12.1,83.2-45.2L87.1,196.1"/>
				<path class="st0" d="M396.6,121.3c4.1-3.4,14.4-11.2,30-11.2c15.9,0,28.1,6.9,34.2,19.9l-122,12.7l16.4-77.2h52.5l-11.8,55.7
					H396.6z M393.8,146.4c-3.4,4.6-6.2,11.2-8.4,21.2c-4.7,21.6,0.4,27.2,6.8,27.2c8.5,0,15.7-8.1,19.3-26.9
					c2.3-12,1.9-20.6-1.3-24.1l52.7-8.5c2.6,8.4,3,19.1,0.5,31.3c-7.7,38.7-31.4,59.1-57.9,59.1c-12,0-25.1-3.1-30.5-15.9h-1.1
					l-4.3,12.6h-47.7l14.2-66.6L393.8,146.4"/>
				<path class="st0" d="M262.2,183.9c-1.6,8.3-7.2,14.8-15.1,14.8c-7.4,0-10.8-6.1-9.4-12.7c1.2-5.6,7-11.2,17.9-11.2h8.6
					L262.2,183.9z M248.9,146.6c1.4-6.8,6.6-12.1,13.1-12.1c6.7,0,9.4,5.7,8.2,11.4l-0.9,4.1l49.2-5.2
					c-3.7-25.1-27.2-36.1-54.5-36.1c-40.7,0-60.1,20.2-63.9,38.1l-0.5,2.5h48.7L248.9,146.6z M188.3,179.7c-1.5,4.2-2.2,8.9-2.2,14
					c0,17.1,12.9,32,34.3,32c19.7,0,30.9-8.2,36-13.7h0.7l-1,10.4h49.3l12.2-56.7c0.5-2.5,0.9-4.8,1.1-7L188.3,179.7"/>
			</g>
		</g>
	</g>
	<g>
		<path class="st0" d="M700.7,202.5c6,0,10.7,4.8,10.7,10.9c0,6.2-4.7,11-10.8,11c-6,0-10.8-4.8-10.8-11
			C689.8,207.3,694.7,202.5,700.7,202.5L700.7,202.5z M700.6,204.2c-4.8,0-8.7,4.1-8.7,9.2c0,5.2,3.9,9.3,8.8,9.3
			c4.8,0,8.7-4.1,8.7-9.2C709.4,208.3,705.5,204.2,700.6,204.2L700.6,204.2z M698.6,219.7h-1.9v-12.2c1-0.2,2-0.3,3.4-0.3
			c1.8,0,3.1,0.4,3.8,0.9c0.7,0.5,1.1,1.4,1.1,2.5c0,1.6-1.1,2.6-2.4,3v0.1c1.1,0.2,1.8,1.2,2,3c0.3,1.9,0.6,2.6,0.8,3h-2
			c-0.3-0.4-0.6-1.5-0.8-3.1c-0.3-1.6-1.1-2.1-2.6-2.1h-1.4V219.7z M698.6,213h1.4c1.6,0,3-0.6,3-2.1c0-1.1-0.8-2.1-3-2.1
			c-0.6,0-1.1,0.1-1.4,0.1V213z"/>
	</g>
</g>
</svg>
