<svg xmlns="http://www.w3.org/2000/svg" width="1000" height="189.5" xml:space="preserve"><g fill="#0052d9"><path d="M919 59h-43l17 24h22l-19 104h38l19-104h47l-75-60zM177 0H5L0 27h67L39 187h38l28-160h67z"/><path d="M205 56c-48 0-79 30-85 66-7 39 17 67 66 67 22 0 42-4 59-13l5-29a97 97 0 0 1-54 18c-25 0-44-10-41-33h100c2-3 3-8 4-14 5-28-5-62-54-62m20 53h-66c4-13 17-31 40-31 25 0 28 19 26 31M373 56c-24 0-42 10-50 20h-1l-33-20-6 41-15 90h38l13-76 3-10c6-10 18-19 33-19 21 0 26 14 23 33l-13 72h38l14-76c7-41-18-55-44-55M828 56c-24 0-41 10-50 20h-1l-33-20-5 41-16 90h38l13-76 4-10c5-10 17-19 32-19 21 0 27 14 23 33l-12 72h38l13-76c7-41-18-55-44-55M661 56c-49 0-80 30-86 66-7 39 18 67 66 67 22 0 42-4 59-13l5-29a97 97 0 0 1-54 18c-24 0-44-10-41-33h101l3-14c5-28-5-62-53-62m19 53h-66c4-13 17-31 40-31 26 0 28 19 26 31M433 121c-7 40 21 68 68 68 18 0 41-5 49-8l6-34a59 59 0 0 1-43 17c-26 0-46-15-41-41 4-24 26-42 55-42 12 0 28 4 38 17l5-34c-8-3-21-8-40-8-53 0-91 27-97 65"/></g></svg>