<?xml version="1.0" encoding="utf-8"?>
<!-- Generator: Adobe Illustrator 19.1.0, SVG Export Plug-In . SVG Version: 6.00 Build 0)  -->
<svg version="1.1" id="Layer_1" xmlns="http://www.w3.org/2000/svg" xmlns:xlink="http://www.w3.org/1999/xlink" x="0px" y="0px"
	 viewBox="76 336.9 720 129.3" style="enable-background:new 76 336.9 720 129.3;" xml:space="preserve">
<style type="text/css">
	.st0{fill:#00A7B8;}
	.st1{fill:#FFFFFF;}
	.st2{display:none;}
	.st3{display:inline;fill:#010101;}
	.st4{display:inline;}
	.st5{fill:#010101;}
	.st6{display:inline;fill:none;}
</style>
<g id="Artwork">
	<g>
		<polygon points="261,379.1 238.6,379.1 238.6,369.2 294.4,369.2 294.4,379.1 272.1,379.1 272.1,433.9 261,433.9 		"/>
		<polygon points="304.9,369.2 316.6,369.2 331.5,418.3 331.7,418.3 345.7,369.2 356,369.2 370,418.3 370.2,418.3 385.1,369.2 
			396.8,369.2 376.4,433.9 364.5,433.9 350.9,386.5 350.7,386.5 337.1,433.9 325.2,433.9 		"/>
		<g>
			<path d="M434,425.4c12.2,0,21.7-9.1,21.7-24.2c0-14.6-9.4-23.6-21.7-23.6c-12.3,0-21.7,9-21.7,23.6
				C412.3,416.3,421.8,425.4,434,425.4 M434,368.1c18.8,0,33,13,33,33.1c0,20.5-14.2,33.8-33,33.8s-33.1-13.3-33.1-33.8
				C400.9,381.1,415.2,368.1,434,368.1"/>
		</g>
		<polygon points="561.9,369.2 573,369.2 573,404.1 573,433.9 561.9,433.9 561.9,397.7 		"/>
		<g>
			<path d="M620.6,368.1c8.9,0,16.4,2.8,22.9,7.3c0,0-6.3,7.4-6.7,7.2c-4.9-3.1-10.1-4.9-16-4.9c-13.3,0-22.1,9.6-22.1,23.3
				c0,14.9,8.2,24.4,22.1,24.4c4.8,0,9.6-1.2,12.9-3.1v-15.4h-16.3v-8.2h26.5V428c-6.3,4.4-14.5,7-23.5,7c-20.2,0-33.2-13.7-33.2-34
				C587.5,382,600.6,368.1,620.6,368.1"/>
		</g>
		<polygon points="659.8,369.2 671,369.2 692.3,399.6 713.7,369.2 724.8,369.2 724.8,433.9 714,433.9 714,385.7 692.2,416.2 
			670.4,385.7 670.4,433.9 659.8,433.9 		"/>
		<path d="M755,411h21l-10.4-30.1h-0.2L755,411z M759,369.2h13l24,64.7h-11.9l-4.9-13.9h-27.3l-4.8,13.9h-12L759,369.2z"/>
		<g>
			<path d="M504.6,419.9c5.8,3.2,11.3,5.3,18.4,5.3c8.5,0,12.7-3.7,12.7-8.9c0-14.6-36.4-5-36.4-29.7c0-10.3,8.6-18.6,23.1-18.6
				c8.5,0,17,2,23.7,6l-7.2,7.4c-5.3-2.3-9.7-3.6-16.1-3.6c-7.5,0-11.9,3.8-11.9,8.6c0,14.5,36.4,4.6,36.4,29.7
				c0,10.6-8,18.8-24.3,18.8c-9.5,0-19.8-3.4-25.9-7.6L504.6,419.9z"/>
		</g>
	</g>
	<g>
		<polygon class="st0" points="140.6,336.9 76,401.6 140.6,466.2 205.2,401.6 		"/>
		<path class="st1" d="M106.5,419.9c-0.5-20.7,24.4-18,24.4-28.6c0-3.4-2.7-6.4-8.7-6.4c-4.4,0-8.6,2.2-11.7,5l-4.6-4.6
			c3.9-3.7,10.1-6.7,16.6-6.7c10.3,0,15.6,5.8,15.6,12.5c0,15.6-24.2,12.9-24.2,25.9h23.8v6.2h-31.1L106.5,419.9z"/>
		<path class="st1" d="M186.9,389.3h-26.4l0,0c-10.8,0-18.9,8.6-18.9,20.1c0,9.1,5.9,14.6,14.2,14.6c10.8,0,19-8.6,19-20
			c0-3.7-1-6.8-2.7-9.2h9.2L186.9,389.3z M156.4,418.3c-4.8,0-7.6-3.1-7.6-9c0-7.5,5-14.3,11-14.3c4.7,0,7.5,3.1,7.5,9
			C167.4,411.6,162.5,418.3,156.4,418.3z"/>
	</g>
</g>
<g id="Guides" class="st2">
	<polygon class="st3" points="264.4,1267.9 241.6,1267.9 241.6,1257.8 298.4,1257.8 298.4,1267.9 275.6,1267.9 275.6,1323.6 
		264.4,1323.6 	"/>
	<polygon class="st3" points="309,1257.8 321,1257.8 336.1,1307.7 336.3,1307.7 350.6,1257.8 361.1,1257.8 375.3,1307.7 
		375.5,1307.7 390.8,1257.8 402.6,1257.8 381.8,1323.6 369.7,1323.6 355.9,1275.4 355.7,1275.4 341.9,1323.6 329.7,1323.6 	"/>
	<g class="st4">
		<path class="st5" d="M440.5,1315c12.4,0,22.1-9.2,22.1-24.6c0-14.9-9.6-24-22.1-24s-22.1,9.1-22.1,24
			C418.4,1305.8,428.1,1315,440.5,1315 M440.5,1256.7c19.1,0,33.6,13.3,33.6,33.7c0,20.9-14.5,34.4-33.6,34.4s-33.7-13.5-33.7-34.4
			C406.8,1269.9,421.4,1256.7,440.5,1256.7"/>
	</g>
	<polygon class="st3" points="571.3,1257.8 582.6,1257.8 582.6,1293.3 582.6,1323.6 571.3,1323.6 571.3,1286.8 	"/>
	<g class="st4">
		<path class="st5" d="M631.6,1256.7c9,0,16.6,2.8,23.3,7.4c0,0-6.5,7.6-6.8,7.4c-5-3.2-10.2-5-16.3-5c-13.5,0-22.5,9.8-22.5,23.7
			c0,15.1,8.4,24.8,22.5,24.8c4.9,0,9.8-1.2,13.2-3.2v-15.6h-16.6v-8.4h27v29.8c-6.4,4.5-14.8,7.1-23.9,7.1
			c-20.6,0-33.8-13.9-33.8-34.6C597.9,1270.8,611.2,1256.7,631.6,1256.7"/>
	</g>
	<polygon class="st3" points="673,1257.8 684.3,1257.8 706.1,1288.7 727.8,1257.8 739.1,1257.8 739.1,1323.6 728.2,1323.6 
		728.2,1274.5 706,1305.6 683.8,1274.5 683.8,1323.6 673,1323.6 	"/>
	<path class="st3" d="M772.3,1300.3h21.4l-10.6-30.7h-0.2L772.3,1300.3z M776.4,1257.8h13.3l24.4,65.8H802l-5-14.2h-27.7l-4.9,14.2
		h-12.2L776.4,1257.8z"/>
	<g class="st4">
		<path class="st5" d="M512.4,1309.4c5.9,3.2,11.5,5.4,18.8,5.4c8.7,0,13-3.8,13-9c0-14.9-37.1-5.1-37.1-30.2
			c0-10.5,8.7-18.9,23.5-18.9c8.7,0,17.4,2.1,24.2,6.1l-7.4,7.5c-5.4-2.3-9.9-3.6-16.4-3.6c-7.6,0-12.1,3.9-12.1,8.7
			c0,14.8,37.1,4.7,37.1,30.3c0,10.8-8.2,19.1-24.7,19.1c-9.7,0-20.2-3.4-26.4-7.7L512.4,1309.4z"/>
	</g>
	<polygon class="st6" points="42.4,379.1 20,379.1 20,369.2 75.8,369.2 75.8,379.1 53.4,379.1 53.4,433.9 42.4,433.9 	"/>
	<polygon class="st6" points="147.9,314.3 147.9,336.7 138,336.7 138,280.9 147.9,280.9 147.9,303.3 202.7,303.3 202.7,314.3 	"/>
	<polygon class="st6" points="147.9,499.6 147.9,522 138,522 138,466.2 147.9,466.2 147.9,488.5 202.7,488.5 202.7,499.6 	"/>
	<polygon class="st6" points="805.9,406.5 805.9,428.8 796,428.8 796,373.1 805.9,373.1 805.9,395.4 860.7,395.4 860.7,406.5 	"/>
</g>
</svg>
